<svg id="Layer_1" data-name="Layer 1" xmlns="http://www.w3.org/2000/svg" viewBox="0 0 500 500"><defs><style>.cls-1{fill:hsl(0, 0%, 100%);}.cls-2{fill:hsl(39, 100%, 50%);}</style></defs><circle class="cls-1" cx="250" cy="250" r="250"/><circle class="cls-2" cx="250" cy="250" r="223.51"/><path class="cls-1" d="M325.63,409.22c-75.76,126.73,17.65,294,174,294,112.54,0,202.17-90.5,202.17-203.54,0-103.1-83.47-198.32-201.88-198.32-40,0-81.67,15.29-110.75,36.23,19.19-11.35,51.54-32,110.54-32,98.82,0,191.38,80.75,191.38,194,0,102.53-81.84,190-191.38,190C357.12,689.64,267.32,537.73,325.63,409.22Z" transform="translate(-250 -250)"/><path class="cls-1" d="M559.66,447.14h27.91v12.14c5.27-7.84,14.65-15.58,30.66-15.58,8.7,0,21.51,2.7,29.29,13,6.86,9.06,7.78,19.59,7.78,29.87v66.59H627.39V495.36c0-5.88-.23-15.19-5.26-20.82-4.35-4.9-10.3-5.38-13-5.38-7.32,0-13,2.69-17.16,9.31-4.12,6.85-4.35,14.44-4.35,20.56v54.11H559.67v-106Zm-107.32,106c-7.66-7.36-13.46-15.59-16.65-25H392.5l56.29-81H352.23v25h47.59l-56.29,81Z" transform="translate(-250 -250)"/><path class="cls-1" d="M521.14,486.06c-2.29-14.45-13.27-21.31-23.57-21.31s-21.05,7.1-23.34,21.31Zm26.31,33.05c-2.75,11.33-14.87,37.45-49.42,37.45-16,0-28.14-4.9-38-14.94-11-11-15.56-24.72-15.56-41.37,0-21.06,8-34,15.1-41.63,11.67-12.24,25.4-14.93,37.3-14.93,20.14,0,31,8.31,38.67,17.38C549,477,548.14,505.14,548.14,505.14H473.32c0,6.37,1.61,13.22,4.81,17.87,3,4.41,9.15,10,19.91,10,10.53,0,18.53-5.39,23.11-14h26.3Z" transform="translate(-250 -250)"/></svg>